<svg xmlns="http://www.w3.org/2000/svg" width="22" height="18" viewBox="0 0 22 18">
  <defs>
    <style>
      .cls-1 {
        fill: #fff;
        fill-rule: evenodd;
      }
    </style>
  </defs>
  <path id="Full" class="cls-1" d="M1138,8318.29a0.994,0.994,0,0,0-1,.99V8324h-4.56a1,1,0,0,0,0,2H1138a1,1,0,0,0,1-1v-5.72a0.994,0.994,0,0,0-1-.99m-14.44,5.71H1119v-4.72a1,1,0,0,0-2,0V8325a1,1,0,0,0,1,1h5.56a1,1,0,0,0,0-2m14.44-16h-5.56a1,1,0,0,0,0,2H1137v4.71a1,1,0,0,0,2,0V8309a1,1,0,0,0-1-1m-14.44,0H1118a1,1,0,0,0-1,1v5.71a1,1,0,0,0,2,0V8310h4.56a1,1,0,0,0,0-2" transform="translate(-1117 -8308)"/>
</svg>
