<svg xmlns="http://www.w3.org/2000/svg" width="12" height="13" viewBox="0 0 12 13">
  <defs>
    <style>
      .cls-1 {
        fill: #f78181;
        fill-rule: evenodd;
      }
    </style>
  </defs>
  <path id="Fill_1" data-name="Fill 1" class="cls-1" d="M1241.16,8033a1.194,1.194,0,0,0-.58.15,1.111,1.111,0,0,0-.58.97v10.76a1.111,1.111,0,0,0,.58.97,1.2,1.2,0,0,0,1.16,0l9.68-5.38a1.1,1.1,0,0,0,0-1.94l-9.68-5.38a1.194,1.194,0,0,0-.58-0.15m0,1.12,9.68,5.38-9.68,5.38v-10.76" transform="translate(-1240 -8033)"/>
</svg>
