<svg xmlns="http://www.w3.org/2000/svg" width="20" height="16" viewBox="0 0 20 16">
  <defs>
    <style>
      .cls-1 {
        fill: #fff;
        fill-rule: evenodd;
      }
    </style>
  </defs>
  <path id="volume" class="cls-1" d="M1083.34,8309.33a0.871,0.871,0,0,0-1.25-.12,0.913,0.913,0,0,0-.12,1.27c0.05,0.06,5.04,6.33-.02,13.07a0.918,0.918,0,0,0,.17,1.27,0.888,0.888,0,0,0,1.25-.18c5.91-7.87.03-15.24-.03-15.31h0Zm-3.46,1.85a0.888,0.888,0,0,0-1.25-.12,0.924,0.924,0,0,0-.12,1.28,7.619,7.619,0,0,1-.02,9.35,0.9,0.9,0,0,0,.71,1.45,0.876,0.876,0,0,0,.7-0.35c4.48-5.96.03-11.55-.02-11.61h0Zm-6.06,10.4-2.97-1.91a0.827,0.827,0,0,0-.48-0.15h-2.59v-5.04h2.59a0.827,0.827,0,0,0,.48-0.15l2.97-1.91v9.16Zm1.32-11.61a0.9,0.9,0,0,0-.91.03l-4.12,2.67h-3.22a0.894,0.894,0,0,0-.89.9v6.86a0.894,0.894,0,0,0,.89.9h3.22l4.12,2.67a0.9,0.9,0,0,0,.48.14,0.98,0.98,0,0,0,.43-0.11,0.928,0.928,0,0,0,.46-0.8v-12.46a0.916,0.916,0,0,0-.46-0.8h0Z" transform="translate(-1066 -8309)"/>
</svg>
