<svg xmlns="http://www.w3.org/2000/svg" width="21" height="13.75" viewBox="0 0 21 13.75">
  <defs>
    <style>
      .cls-1 {
        fill: #9a9a9a;
        fill-rule: evenodd;
      }
    </style>
  </defs>
  <path id="Google" class="cls-1" d="M1029.06,9162.26v-1.97h-1.79v1.97h-1.95v1.82h1.95v1.97h1.79v-1.97H1031v-1.82h-1.94Zm-5.97,0h-6.21v1.87h4.41a4.106,4.106,0,0,1-4.4,3.75,5,5,0,0,1,0-10,4.788,4.788,0,0,1,3.33,1.35l1.29-1.36a6.535,6.535,0,0,0-4.68-1.87,6.875,6.875,0,0,0,.09,13.75,6.012,6.012,0,0,0,6.29-6.25,5.3,5.3,0,0,0-.12-1.24h0Z" transform="translate(-1010 -9156)"/>
</svg>
