<svg xmlns="http://www.w3.org/2000/svg" width="18" height="18" viewBox="0 0 18 18">
  <defs>
    <style>
      .cls-1 {
        fill: #9a9a9a;
        fill-rule: evenodd;
      }
    </style>
  </defs>
  <path id="Instagram" class="cls-1" d="M904.514,9157.16a1.08,1.08,0,1,0,1.084,1.08,1.079,1.079,0,0,0-1.084-1.08M900,9165.98a2.98,2.98,0,1,1,2.978-2.98,2.984,2.984,0,0,1-2.978,2.98m0-7.64a4.655,4.655,0,1,0,4.653,4.66,4.661,4.661,0,0,0-4.653-4.66m7.3,7.2a10.481,10.481,0,0,1-.135,1.73,3.355,3.355,0,0,1-2.673,2.86,9.362,9.362,0,0,1-2.217.19h-1.2c-1.062,0-2.143-.01-3.191-0.01l-0.7-.01a7.445,7.445,0,0,1-1.71-.17,3.371,3.371,0,0,1-2.382-1.97,5.438,5.438,0,0,1-.381-1.99c0-.14-0.015-0.26-0.026-0.39l-0.009-.12v-5.26a1.383,1.383,0,0,0,.026-0.22,7.861,7.861,0,0,1,.176-1.69,3.325,3.325,0,0,1,2-2.41,5.556,5.556,0,0,1,1.957-.37,2.385,2.385,0,0,0,.385-0.03h5.387a1.167,1.167,0,0,1,.161.02l0.525,0.03a6.931,6.931,0,0,1,.954.1,3.7,3.7,0,0,1,1.875.87,3.666,3.666,0,0,1,1,1.81,9.245,9.245,0,0,1,.188,2.18v0.06c0.015,1.61.011,3.22-.012,4.79m1.687-4.8v-0.07a10.67,10.67,0,0,0-.24-2.58,5.039,5.039,0,0,0-4.194-3.91,9.624,9.624,0,0,0-1.163-.12l-0.467-.03a0.027,0.027,0,0,1-.024-0.01,0.159,0.159,0,0,1-.067-0.01l-0.072-.01h-5.513a0.942,0.942,0,0,1-.167.01l-0.314.03a7.114,7.114,0,0,0-2.556.5,4.99,4.99,0,0,0-2.96,3.54,9.182,9.182,0,0,0-.225,2.01c-0.006.03-.011,0.05-0.016,0.08l-0.013.07v5.48l0,0.03c0,0.06.009,0.12,0.014,0.17,0.009,0.11.017,0.22,0.021,0.31a7.041,7.041,0,0,0,.525,2.61,4.985,4.985,0,0,0,3.5,2.91,9.412,9.412,0,0,0,2.109.23h0.7c1.05,0.01,2.135.02,3.2,0.02,0.426,0,.82,0,1.2-0.01h0.008a10.288,10.288,0,0,0,2.62-.24,5.007,5.007,0,0,0,3.905-4.18,11.963,11.963,0,0,0,.164-2c0.022-1.59.027-3.21,0.012-4.83" transform="translate(-891 -9154)"/>
</svg>
