<svg xmlns="http://www.w3.org/2000/svg" width="13.75" height="18.03" viewBox="0 0 13.75 18.03">
  <defs>
    <style>
      .cls-1 {
        fill: #9a9a9a;
        fill-rule: evenodd;
      }
    </style>
  </defs>
  <path id="Pinterest" class="cls-1" d="M956.089,9164.42a0.35,0.35,0,0,0,.51-0.26c0.046-.18.158-0.64,0.208-0.83a0.511,0.511,0,0,0-.147-0.58,3.011,3.011,0,0,1-.672-2.03,4.871,4.871,0,0,1,5.019-4.96c2.739,0,4.243,1.7,4.243,3.97,0,2.99-1.3,5.5-3.232,5.5a1.592,1.592,0,0,1-1.61-1.99,22.534,22.534,0,0,0,.9-3.67,1.382,1.382,0,0,0-1.375-1.56c-1.09,0-1.967,1.15-1.967,2.68a4.023,4.023,0,0,0,.326,1.64s-1.115,4.8-1.311,5.64a11.757,11.757,0,0,0-.031,3.93,0.132,0.132,0,0,0,.242.06,11.035,11.035,0,0,0,1.841-3.38c0.125-.46.717-2.85,0.717-2.85a2.9,2.9,0,0,0,2.491,1.29c3.278,0,5.5-3.03,5.5-7.09a6.134,6.134,0,0,0-6.455-5.93c-4.845,0-7.288,3.52-7.288,6.46,0,1.78.665,3.37,2.089,3.96" transform="translate(-954 -9154)"/>
</svg>
