<svg xmlns="http://www.w3.org/2000/svg" width="16.16" height="10.75" viewBox="0 0 16.16 10.75">
  <defs>
    <style>
      .cls-1 {
        fill: #9a9a9a;
        fill-rule: evenodd;
      }
    </style>
  </defs>
  <path id="Spotify" class="cls-1" d="M1087.58,9161.18a19.269,19.269,0,0,0-9.4-2.18,18.9,18.9,0,0,0-5.38.7,1.1,1.1,0,0,0,.27,2.16,1.979,1.979,0,0,0,.58-0.13,17.868,17.868,0,0,1,4.54-.54,17.338,17.338,0,0,1,8.32,1.9,1.042,1.042,0,0,0,.58.18,1.056,1.056,0,0,0,1.07-1.06,1.087,1.087,0,0,0-.58-1.03m-2.88,7.1a12.693,12.693,0,0,0-6.6-1.7,18.833,18.833,0,0,0-4.24.5,0.719,0.719,0,0,0-.62.77,0.708,0.708,0,0,0,.72.71,3.651,3.651,0,0,0,.56-0.11,18.258,18.258,0,0,1,3.58-.39,11.445,11.445,0,0,1,5.87,1.51,0.8,0.8,0,0,0,.48.17,0.7,0.7,0,0,0,.7-0.7,0.759,0.759,0,0,0-.45-0.76m1.35-3.31a15.97,15.97,0,0,0-8.1-2.08,15.772,15.772,0,0,0-4.48.61,0.909,0.909,0,0,0-.7.95,0.883,0.883,0,0,0,.89.88,1.95,1.95,0,0,0,.55-0.12,15.109,15.109,0,0,1,10.91,1.34,0.994,0.994,0,0,0,.56.2,0.886,0.886,0,0,0,.89-0.89,0.915,0.915,0,0,0-.52-0.89" transform="translate(-1072 -9159)"/>
</svg>
