<svg xmlns="http://www.w3.org/2000/svg" width="10" height="16.25" viewBox="0 0 10 16.25">
  <defs>
    <style>
      .cls-1 {
        fill: #9a9a9a;
        fill-rule: evenodd;
      }
    </style>
  </defs>
  <path id="Tumblr" class="cls-1" d="M1145,9167.92v-0.11a1.462,1.462,0,0,0-.15.09,4.574,4.574,0,0,1-1.93.69,2.542,2.542,0,0,1-1.64-.32,1.207,1.207,0,0,1-.6-0.91c-0.03-.34-0.07-0.67-0.07-1-0.01-1.53,0-3.06-.01-4.59a0.425,0.425,0,0,1,.02-0.11h3.83v-2.56h-3.85V9155h-2.3c-0.02.13-.04,0.26-0.06,0.38s-0.05.25-.07,0.38a4.52,4.52,0,0,1-3.07,3.55,0.133,0.133,0,0,0-.1.15v2.07c0,0.04.01,0.08,0.01,0.13h1.77v5.61c0,0.3.02,0.61,0.04,0.92a2.654,2.654,0,0,0,.77,1.72,4.061,4.061,0,0,0,.9.69,5.437,5.437,0,0,0,2.44.64,8.163,8.163,0,0,0,3.97-.83,0.15,0.15,0,0,0,.1-0.16c-0.01-.78,0-1.55,0-2.33" transform="translate(-1135 -9155)"/>
</svg>
