<svg xmlns="http://www.w3.org/2000/svg" width="16.906" height="13.72" viewBox="0 0 16.906 13.72">
  <defs>
    <style>
      .cls-1 {
        fill: #9a9a9a;
        fill-rule: evenodd;
      }
    </style>
  </defs>
  <path id="Twitter" class="cls-1" d="M846.908,9159.17a3.484,3.484,0,0,0,1.525-1.92,6.751,6.751,0,0,1-2.2.84,3.469,3.469,0,0,0-5.908,3.16,9.817,9.817,0,0,1-7.147-3.62,3.474,3.474,0,0,0,1.073,4.63,3.485,3.485,0,0,1-1.571-.44v0.05a3.469,3.469,0,0,0,2.782,3.39,3.445,3.445,0,0,1-.914.12,3.506,3.506,0,0,1-.652-0.06,3.472,3.472,0,0,0,3.239,2.41,6.954,6.954,0,0,1-4.306,1.48,7.51,7.51,0,0,1-.827-0.05,9.858,9.858,0,0,0,15.18-8.3c0-.15,0-0.3-0.01-0.45a6.823,6.823,0,0,0,1.73-1.79A7,7,0,0,1,846.908,9159.17Z" transform="translate(-832 -9157)"/>
</svg>
