<svg xmlns="http://www.w3.org/2000/svg" width="92" height="92" viewBox="0 0 92 92">
  <defs>
    <style>
      .cls-1 {
        fill: #fff;
        fill-rule: evenodd;
      }
    </style>
  </defs>
  <path id="Play" class="cls-1" d="M963,1245.01a44.01,44.01,0,1,1,44.01-44.01A44.056,44.056,0,0,1,963,1245.01h0Zm0-90.01a46,46,0,1,0,46,46,46.055,46.055,0,0,0-46-46h0Zm-10.149,62.88v-33.76l28.27,16.88Zm29.291-18.59-28.27-16.88a1.972,1.972,0,0,0-1.021-.29,1.995,1.995,0,0,0-1.993,2v33.76a1.995,1.995,0,0,0,1.993,2,1.972,1.972,0,0,0,1.021-.29l28.27-16.88a1.99,1.99,0,0,0,0-3.42h0Z" transform="translate(-917 -1155)"/>
</svg>
